<?xml version="1.0" standalone="no" ?>
<!DOCTYPE svg PUBLIC "-//W3C//DTD SVG 1.1//EN" "http://www.w3.org/Graphics/SVG/1.1/DTD/svg11.dtd">
<svg width="274px" height="100px" viewBox="0 0 274 100" style="background-color: #ffffff00" xmlns="http://www.w3.org/2000/svg" xmlns:xlink="http://www.w3.org/1999/xlink" version="1.1" >
<text x="0" y="0" stroke="none" fill="#000000" transform="matrix(0.0666667 0 0 0.0666667 33.4989 36.1467)" font-style="normal" font-weight="normal" font-size="200px" font-family="Arial" >
N</text>
<text x="0" y="0" stroke="none" fill="#000000" transform="matrix(0.0666667 0 0 0.0666667 43.1278 30.88)" font-style="normal" font-weight="normal" font-size="150px" font-family="Arial" >
+</text>
<path stroke="none" fill="#000000" transform="matrix(0.0666667 0 0 0.0666667 -51.4333 -378)" d="M 1090.99,6281.66 L 1096.8,6277.2 L 1102.66,6280.46 L 1102.66,6561.82 L 1090.65,6568.75 L 1090.99,6281.66 Z " />
<path stroke="none" fill="#000000" transform="matrix(0.0666667 0 0 0.0666667 -51.4333 -378)" d="M 1090.65,6568.75 L 1102.66,6561.82 L 1149.68,6588.8 L 1143.68,6599.2 L 1090.65,6568.75 Z " />
<path stroke="none" fill="#000000" transform="matrix(0.0666667 0 0 0.0666667 -51.4333 -378)" d="M 1193.56,6628 L 1199.56,6617.6 L 1249.44,6646.4 L 1243.44,6656.8 L 1193.56,6628 Z " />
<path stroke="none" fill="#000000" transform="matrix(0.0666667 0 0 0.0666667 -51.4333 -378)" d="M 1293.32,6685.6 L 1299.32,6675.2 L 1346.2,6702.43 L 1346.2,6709.2 L 1340.41,6712.63 L 1293.32,6685.6 Z " />
<path stroke="none" fill="#000000" transform="matrix(0.0666667 0 0 0.0666667 -51.4333 -378)" d="M 1351.99,6712.63 L 1346.2,6709.2 L 1346.2,6702.43 L 1393.08,6675.2 L 1399.08,6685.6 L 1351.99,6712.63 Z " />
<path stroke="none" fill="#000000" transform="matrix(0.0666667 0 0 0.0666667 -51.4333 -378)" d="M 1448.96,6656.8 L 1442.96,6646.4 L 1492.84,6617.6 L 1498.84,6628 L 1448.96,6656.8 Z " />
<path stroke="none" fill="#000000" transform="matrix(0.0666667 0 0 0.0666667 -51.4333 -378)" d="M 1548.72,6599.2 L 1542.72,6588.8 L 1589.74,6561.82 L 1601.75,6568.75 L 1548.72,6599.2 Z " />
<path stroke="none" fill="#000000" transform="matrix(0.0666667 0 0 0.0666667 -51.4333 -378)" d="M 1601.75,6568.75 L 1589.74,6561.82 L 1589.74,6280.46 L 1595.6,6277.2 L 1601.41,6281.66 L 1601.75,6568.75 Z " />
<path stroke="none" fill="#000000" transform="matrix(0.0666667 0 0 0.0666667 -51.4333 -378)" d="M 1593.4,6269.47 L 1595.6,6277.2 L 1589.74,6280.46 L 1445.51,6197.47 L 1451.51,6187.08 L 1593.4,6269.47 Z " />
<path stroke="none" fill="#000000" transform="matrix(0.0666667 0 0 0.0666667 -51.4333 -378)" d="M 1241.31,6186.83 L 1247.31,6197.23 L 1102.66,6280.46 L 1096.8,6277.2 L 1100.44,6268.77 L 1241.31,6186.83 Z " />
<text x="0" y="0" stroke="none" fill="#000000" transform="matrix(0.0666667 0 0 0.0666667 33.1278 16.9467)" font-style="normal" font-weight="normal" font-size="200px" font-family="Arial" >
O</text>
<path stroke="none" fill="#000000" transform="matrix(0.0666667 0 0 0.0666667 -51.4333 -378)" d="M 1326.28,6042.87 L 1314.28,6042.87 L 1314.28,5957.2 L 1326.28,5957.2 L 1326.28,6042.87 Z " />
<path stroke="none" fill="#000000" transform="matrix(0.0666667 0 0 0.0666667 -51.4333 -378)" d="M 1378.12,6042.87 L 1366.12,6042.87 L 1366.12,5957.2 L 1378.12,5957.2 L 1378.12,6042.87 Z " />
<path stroke="none" fill="#000000" transform="matrix(0.0666667 0 0 0.0666667 -51.4333 -378)" d="M 1601.41,6281.66 L 1595.6,6277.2 L 1606.9,6268.53 L 1872.25,6197 L 1875.35,6208.6 L 1601.41,6281.66 Z " />
<path stroke="none" fill="#000000" transform="matrix(0.0666667 0 0 0.0666667 -51.4333 -378)" d="M 1606.9,6268.53 L 1595.6,6277.2 L 1593.4,6269.47 L 1734.4,6024.8 L 1744.8,6030.8 L 1606.9,6268.53 Z " />
<path stroke="none" fill="#000000" transform="matrix(0.0666667 0 0 0.0666667 -51.4333 -378)" d="M 1088.89,6269.29 L 1096.8,6277.2 L 1090.99,6281.66 L 817.05,6208.6 L 820.15,6197 L 1088.89,6269.29 Z " />
<path stroke="none" fill="#000000" transform="matrix(0.0666667 0 0 0.0666667 -51.4333 -378)" d="M 1100.44,6268.77 L 1096.8,6277.2 L 1088.89,6269.29 L 1016.4,6000.55 L 1027.99,5997.45 L 1100.44,6268.77 Z " />
<text x="0" y="0" stroke="none" fill="#000000" transform="matrix(0.0666667 0 0 0.0666667 33.4989 93.7466)" font-style="normal" font-weight="normal" font-size="200px" font-family="Arial" >
R</text>
<path stroke="none" fill="#000000" transform="matrix(0.0666667 0 0 0.0666667 -51.4333 -378)" d="M 1340.41,6712.63 L 1346.2,6709.2 L 1351.99,6712.63 L 1352.2,6906.53 L 1340.2,6906.53 L 1340.41,6712.63 Z " />
<text x="0" y="0" stroke="none" fill="#000000" transform="matrix(0.0666667 0 0 0.0666667 132.752 39.1467)" font-style="normal" font-weight="normal" font-size="200px" font-family="Arial" >
N</text>
<path stroke="none" fill="#000000" transform="matrix(0.0666667 0 0 0.0666667 -51.4333 -378)" d="M 2579.79,6326.66 L 2585.6,6322.2 L 2591.46,6325.46 L 2591.46,6606.82 L 2579.45,6613.75 L 2579.79,6326.66 Z " />
<path stroke="none" fill="#000000" transform="matrix(0.0666667 0 0 0.0666667 -51.4333 -378)" d="M 2579.45,6613.75 L 2591.46,6606.82 L 2638.48,6633.8 L 2632.48,6644.2 L 2579.45,6613.75 Z " />
<path stroke="none" fill="#000000" transform="matrix(0.0666667 0 0 0.0666667 -51.4333 -378)" d="M 2682.36,6673 L 2688.36,6662.6 L 2738.24,6691.4 L 2732.24,6701.8 L 2682.36,6673 Z " />
<path stroke="none" fill="#000000" transform="matrix(0.0666667 0 0 0.0666667 -51.4333 -378)" d="M 2782.12,6730.6 L 2788.12,6720.2 L 2835,6747.43 L 2835,6754.2 L 2829.21,6757.63 L 2782.12,6730.6 Z " />
<path stroke="none" fill="#000000" transform="matrix(0.0666667 0 0 0.0666667 -51.4333 -378)" d="M 2840.79,6757.63 L 2835,6754.2 L 2835,6747.43 L 2881.88,6720.2 L 2887.88,6730.6 L 2840.79,6757.63 Z " />
<path stroke="none" fill="#000000" transform="matrix(0.0666667 0 0 0.0666667 -51.4333 -378)" d="M 2937.76,6701.8 L 2931.76,6691.4 L 2981.64,6662.6 L 2987.64,6673 L 2937.76,6701.8 Z " />
<path stroke="none" fill="#000000" transform="matrix(0.0666667 0 0 0.0666667 -51.4333 -378)" d="M 3037.52,6644.2 L 3031.52,6633.8 L 3078.54,6606.82 L 3090.55,6613.75 L 3037.52,6644.2 Z " />
<path stroke="none" fill="#000000" transform="matrix(0.0666667 0 0 0.0666667 -51.4333 -378)" d="M 3090.55,6613.75 L 3078.54,6606.82 L 3078.54,6325.46 L 3084.4,6322.2 L 3090.21,6326.66 L 3090.55,6613.75 Z " />
<path stroke="none" fill="#000000" transform="matrix(0.0666667 0 0 0.0666667 -51.4333 -378)" d="M 3082.2,6314.47 L 3084.4,6322.2 L 3078.54,6325.46 L 2934.17,6242.39 L 2940.17,6232 L 3082.2,6314.47 Z " />
<path stroke="none" fill="#000000" transform="matrix(0.0666667 0 0 0.0666667 -51.4333 -378)" d="M 2730.26,6231.75 L 2736.26,6242.14 L 2591.46,6325.46 L 2585.6,6322.2 L 2587.8,6314.47 L 2730.26,6231.75 Z " />
<text x="0" y="0" stroke="none" fill="#000000" transform="matrix(0.0666667 0 0 0.0666667 132.381 19.9467)" font-style="normal" font-weight="normal" font-size="200px" font-family="Arial" >
O</text>
<path stroke="none" fill="#000000" transform="matrix(0.0666667 0 0 0.0666667 -51.4333 -378)" d="M 2841,6087.53 L 2829,6087.53 L 2829,6002.2 L 2841,6002.2 L 2841,6087.53 Z " />
<path stroke="none" fill="#000000" transform="matrix(0.0666667 0 0 0.0666667 -51.4333 -378)" d="M 2818.33,5755.8 A 16.6667,16.6667 0 1 0 2851.67,5755.8A 16.6667,16.6667 0 1 0 2818.33,5755.8Z " />
<path stroke="none" fill="#000000" transform="matrix(0.0666667 0 0 0.0666667 -51.4333 -378)" d="M 2574.3,6313.53 L 2585.6,6322.2 L 2579.79,6326.66 L 2305.85,6253.6 L 2308.95,6242 L 2574.3,6313.53 Z " />
<path stroke="none" fill="#000000" transform="matrix(0.0666667 0 0 0.0666667 -51.4333 -378)" d="M 2587.8,6314.47 L 2585.6,6322.2 L 2574.3,6313.53 L 2436.4,6075.8 L 2446.8,6069.8 L 2587.8,6314.47 Z " />
<path stroke="none" fill="#000000" transform="matrix(0.0666667 0 0 0.0666667 -51.4333 -378)" d="M 3090.21,6326.66 L 3084.4,6322.2 L 3095.7,6313.53 L 3361.05,6242 L 3364.15,6253.6 L 3090.21,6326.66 Z " />
<path stroke="none" fill="#000000" transform="matrix(0.0666667 0 0 0.0666667 -51.4333 -378)" d="M 3095.7,6313.53 L 3084.4,6322.2 L 3082.2,6314.47 L 3223.2,6069.8 L 3233.6,6075.8 L 3095.7,6313.53 Z " />
<text x="0" y="0" stroke="none" fill="#000000" transform="matrix(0.0666667 0 0 0.0666667 132.752 96.7466)" font-style="normal" font-weight="normal" font-size="200px" font-family="Arial" >
R</text>
<path stroke="none" fill="#000000" transform="matrix(0.0666667 0 0 0.0666667 -51.4333 -378)" d="M 2829.21,6757.63 L 2835,6754.2 L 2840.79,6757.63 L 2841,6951.53 L 2829,6951.53 L 2829.21,6757.63 Z " />
<text x="0" y="0" stroke="none" fill="#000000" transform="matrix(0.0666667 0 0 0.0666667 230.926 32.84)" font-style="normal" font-weight="normal" font-size="200px" font-family="Arial" >
N</text>
<path stroke="none" fill="#000000" transform="matrix(0.0666667 0 0 0.0666667 -51.4333 -378)" d="M 4052.19,6232.06 L 4058,6227.6 L 4063.86,6230.86 L 4063.86,6512.02 L 4051.85,6518.95 L 4052.19,6232.06 Z " />
<path stroke="none" fill="#000000" transform="matrix(0.0666667 0 0 0.0666667 -51.4333 -378)" d="M 4051.85,6518.95 L 4063.86,6512.02 L 4110.92,6539 L 4104.92,6549.4 L 4051.85,6518.95 Z " />
<path stroke="none" fill="#000000" transform="matrix(0.0666667 0 0 0.0666667 -51.4333 -378)" d="M 4154.84,6578.2 L 4160.84,6567.8 L 4210.76,6596.6 L 4204.76,6607 L 4154.84,6578.2 Z " />
<path stroke="none" fill="#000000" transform="matrix(0.0666667 0 0 0.0666667 -51.4333 -378)" d="M 4254.68,6635.8 L 4260.68,6625.4 L 4307.6,6652.63 L 4307.6,6659.4 L 4301.81,6662.83 L 4254.68,6635.8 Z " />
<path stroke="none" fill="#000000" transform="matrix(0.0666667 0 0 0.0666667 -51.4333 -378)" d="M 4313.39,6662.83 L 4307.6,6659.4 L 4307.6,6652.63 L 4354.48,6625.4 L 4360.48,6635.8 L 4313.39,6662.83 Z " />
<path stroke="none" fill="#000000" transform="matrix(0.0666667 0 0 0.0666667 -51.4333 -378)" d="M 4410.36,6607 L 4404.36,6596.6 L 4454.24,6567.8 L 4460.24,6578.2 L 4410.36,6607 Z " />
<path stroke="none" fill="#000000" transform="matrix(0.0666667 0 0 0.0666667 -51.4333 -378)" d="M 4510.12,6549.4 L 4504.12,6539 L 4551.14,6512.02 L 4563.15,6518.95 L 4510.12,6549.4 Z " />
<path stroke="none" fill="#000000" transform="matrix(0.0666667 0 0 0.0666667 -51.4333 -378)" d="M 4563.15,6518.95 L 4551.14,6512.02 L 4551.14,6230.86 L 4557,6227.6 L 4562.81,6232.06 L 4563.15,6518.95 Z " />
<path stroke="none" fill="#000000" transform="matrix(0.0666667 0 0 0.0666667 -51.4333 -378)" d="M 4554.8,6219.87 L 4557,6227.6 L 4551.14,6230.86 L 4406.77,6147.79 L 4412.77,6137.4 L 4554.8,6219.87 Z " />
<path stroke="none" fill="#000000" transform="matrix(0.0666667 0 0 0.0666667 -51.4333 -378)" d="M 4202.85,6137.11 L 4208.84,6147.5 L 4063.86,6230.86 L 4058,6227.6 L 4060.2,6219.87 L 4202.85,6137.11 Z " />
<text x="0" y="0" stroke="none" fill="#000000" transform="matrix(0.0666667 0 0 0.0666667 230.554 13.64)" font-style="normal" font-weight="normal" font-size="200px" font-family="Arial" >
O</text>
<text x="0" y="0" stroke="none" fill="#000000" transform="matrix(0.0666667 0 0 0.0666667 240.926 8.37333)" font-style="normal" font-weight="normal" font-size="150px" font-family="Arial" >
-</text>
<path stroke="none" fill="#000000" transform="matrix(0.0666667 0 0 0.0666667 -51.4333 -378)" d="M 4313.6,5992.93 L 4301.6,5992.93 L 4301.6,5907.6 L 4313.6,5907.6 L 4313.6,5992.93 Z " />
<path stroke="none" fill="#000000" transform="matrix(0.0666667 0 0 0.0666667 -51.4333 -378)" d="M 4046.7,6218.93 L 4058,6227.6 L 4052.19,6232.06 L 3778.25,6158.8 L 3781.35,6147.2 L 4046.7,6218.93 Z " />
<path stroke="none" fill="#000000" transform="matrix(0.0666667 0 0 0.0666667 -51.4333 -378)" d="M 4060.2,6219.87 L 4058,6227.6 L 4046.7,6218.93 L 3908.8,5981 L 3919.2,5975 L 4060.2,6219.87 Z " />
<path stroke="none" fill="#000000" transform="matrix(0.0666667 0 0 0.0666667 -51.4333 -378)" d="M 4562.81,6232.06 L 4557,6227.6 L 4568.3,6218.93 L 4833.65,6147.2 L 4836.75,6158.8 L 4562.81,6232.06 Z " />
<path stroke="none" fill="#000000" transform="matrix(0.0666667 0 0 0.0666667 -51.4333 -378)" d="M 4568.3,6218.93 L 4557,6227.6 L 4554.8,6219.87 L 4695.8,5975 L 4706.2,5981 L 4568.3,6218.93 Z " />
<text x="0" y="0" stroke="none" fill="#000000" transform="matrix(0.0666667 0 0 0.0666667 230.926 90.4267)" font-style="normal" font-weight="normal" font-size="200px" font-family="Arial" >
R</text>
<path stroke="none" fill="#000000" transform="matrix(0.0666667 0 0 0.0666667 -51.4333 -378)" d="M 4301.81,6662.83 L 4307.6,6659.4 L 4313.39,6662.83 L 4313.6,6856.73 L 4301.6,6856.73 L 4301.81,6662.83 Z " />
</svg>
